<?xml version="1.0" standalone="no"?>
<!DOCTYPE svg PUBLIC "-//W3C//DTD SVG 20010904//EN"
 "http://www.w3.org/TR/2001/REC-SVG-20010904/DTD/svg10.dtd">
<svg version="1.0" xmlns="http://www.w3.org/2000/svg"
 width="2000.000000pt" height="2000.000000pt" viewBox="0 0 2000.000000 2000.000000"
 preserveAspectRatio="xMidYMid meet">

<g transform="translate(0.000000,2000.000000) scale(0.100000,-0.100000)"
fill="#000000" stroke="none">
<path d="M0 10000 l0 -10000 10000 0 10000 0 0 10000 0 10000 -10000 0 -10000
0 0 -10000z m10780 9390 c91 -5 252 -19 358 -32 185 -21 193 -23 188 -43 -3
-11 -14 -56 -25 -99 -28 -110 -35 -224 -22 -336 32 -259 118 -445 286 -615
142 -145 289 -231 480 -281 129 -34 333 -39 464 -10 195 42 375 142 520 289
115 116 198 248 241 382 7 22 15 44 17 48 15 25 576 -316 842 -511 445 -327
873 -736 1229 -1175 236 -291 482 -656 646 -960 34 -62 44 -88 34 -91 -7 -2
-47 -7 -88 -10 -121 -8 -256 -61 -361 -142 -233 -179 -356 -462 -319 -734 24
-178 102 -339 222 -457 79 -79 116 -106 199 -148 157 -80 300 -104 476 -81
153 21 294 83 395 174 l37 33 15 -53 c81 -278 165 -749 208 -1168 21 -200 17
-1060 -5 -1270 -117 -1104 -456 -2090 -1027 -2988 -416 -653 -987 -1270 -1600
-1728 -461 -345 -993 -640 -1529 -848 -614 -239 -1393 -401 -1961 -408 -74 0
-120 -3 -102 -5 l32 -4 0 -1299 0 -1299 103 5 c174 8 1929 55 1932 52 1 -2 5
-98 8 -214 l6 -211 -177 -6 c-97 -4 -535 -16 -972 -27 -437 -12 -819 -23 -847
-26 l-53 -5 0 -1365 0 -1364 -215 0 -215 0 0 1360 0 1360 -62 -1 c-35 0 -493
-13 -1018 -28 -525 -15 -957 -26 -960 -24 -2 2 -6 98 -10 213 l-5 209 50 5
c28 3 417 14 865 26 448 11 888 23 978 27 l162 6 0 1304 0 1303 63 2 c34 1
-39 5 -163 9 -734 23 -1523 211 -2259 538 -383 170 -866 455 -1206 711 -304
229 -663 557 -912 832 -137 151 -141 156 -116 164 317 111 577 340 726 639
205 413 157 920 -122 1290 -175 233 -412 387 -707 462 -99 26 -125 28 -284 27
-146 0 -190 -4 -265 -22 -232 -57 -418 -149 -546 -270 -20 -18 -39 -30 -42
-25 -2 4 -27 78 -55 163 -160 489 -253 941 -309 1500 -25 251 -25 987 0 1245
113 1145 470 2166 1083 3100 848 1293 2141 2254 3593 2669 485 139 925 211
1471 239 138 8 480 6 630 -3z"/>
<path d="M10352 15523 c-20 -4 -21 -6 -6 -20 15 -15 13 -18 -25 -36 -27 -13
-52 -36 -73 -68 -23 -36 -36 -48 -49 -44 -22 7 -33 -32 -12 -44 13 -7 10 -22
-24 -112 -29 -77 -43 -104 -56 -104 -17 0 -36 -20 -37 -37 0 -5 7 -8 15 -8 20
0 20 -1 -22 -117 -32 -87 -41 -103 -60 -103 -26 0 -35 -30 -14 -46 12 -9 8
-26 -25 -112 -33 -87 -42 -102 -61 -102 -26 0 -35 -30 -14 -46 12 -10 9 -26
-24 -113 -29 -76 -43 -101 -56 -101 -10 0 -23 -9 -29 -19 -8 -16 -6 -21 9 -26
19 -6 18 -8 -6 -68 -47 -116 -71 -156 -90 -151 -11 3 -23 -3 -30 -15 -11 -17
-10 -21 7 -26 19 -6 18 -8 -6 -48 -47 -74 -107 -148 -118 -144 -6 3 -10 10 -8
16 3 17 -2 14 -34 -21 -16 -17 -24 -28 -18 -25 7 4 17 1 23 -7 9 -11 -7 -30
-75 -95 -61 -58 -90 -79 -97 -72 -8 8 -1 22 24 48 l34 36 -50 -41 c-49 -40
-100 -85 -81 -69 15 11 36 8 36 -5 0 -13 -95 -80 -159 -113 -26 -13 -36 -14
-45 -5 -8 9 -8 14 0 17 6 2 20 10 30 19 10 8 -16 -2 -58 -23 -43 -20 -76 -39
-74 -41 3 -2 14 1 25 8 21 11 41 6 41 -10 0 -4 -48 -27 -107 -49 -81 -32 -108
-39 -114 -29 -4 7 -3 16 4 21 7 6 4 6 -8 2 -11 -4 -28 -10 -37 -12 -14 -4 -15
-9 -7 -24 7 -14 6 -21 -3 -24 -7 -2 -55 -20 -107 -40 -67 -25 -97 -33 -105
-25 -8 8 -7 14 4 21 11 8 9 9 -10 3 -36 -10 -45 -17 -45 -38 0 -14 -23 -27
-100 -56 -99 -37 -121 -40 -111 -15 3 10 -3 10 -31 2 -20 -6 -30 -13 -24 -15
32 -11 2 -34 -94 -71 -58 -23 -109 -41 -112 -41 -3 0 -3 9 0 21 4 16 2 19 -11
14 -9 -4 -25 -10 -35 -12 -14 -4 -15 -8 -6 -19 7 -8 9 -17 7 -20 -5 -4 -208
-84 -215 -84 -2 0 -3 9 -3 21 0 20 -1 20 -31 2 -16 -10 -40 -29 -52 -43 l-22
-25 28 24 c42 37 57 13 18 -28 -29 -31 -51 -84 -51 -123 0 -10 -7 -18 -15 -18
-9 0 -15 -10 -15 -26 0 -20 4 -24 19 -19 14 4 21 0 26 -17 12 -38 52 -84 84
-98 19 -8 31 -20 31 -32 0 -23 25 -34 44 -19 20 17 221 -60 221 -85 0 -22 34
-32 45 -14 6 10 34 3 114 -26 85 -31 105 -42 100 -56 -6 -21 35 -36 46 -18 6
10 34 3 114 -26 86 -31 106 -42 102 -56 -5 -21 33 -36 44 -17 6 9 33 3 115
-27 85 -31 105 -42 102 -55 -6 -22 34 -34 45 -14 7 11 26 6 101 -27 50 -22 98
-42 105 -45 8 -3 11 -14 9 -24 -6 -21 29 -37 45 -21 11 11 49 -10 146 -82 38
-28 51 -44 47 -56 -7 -23 20 -46 38 -32 10 9 27 -3 73 -51 91 -94 98 -105 86
-119 -16 -20 12 -55 32 -39 11 9 23 -2 63 -66 72 -112 77 -124 63 -133 -19
-12 -3 -49 19 -43 16 4 25 -12 60 -100 23 -58 41 -108 41 -111 0 -3 -7 -6 -15
-6 -8 0 -15 -3 -15 -7 0 -17 20 -38 36 -38 24 0 100 -206 80 -217 -21 -12 -8
-50 14 -43 15 5 23 -8 45 -67 15 -40 34 -88 41 -107 12 -29 12 -35 -1 -45 -21
-15 -9 -49 15 -43 25 6 105 -202 84 -219 -19 -15 -7 -53 16 -47 14 4 23 -9 45
-69 15 -40 34 -88 41 -105 11 -28 11 -34 -2 -41 -24 -13 -6 -43 21 -36 17 4
26 0 34 -14 13 -25 88 -62 124 -62 17 0 27 -5 27 -15 0 -8 9 -15 20 -15 13 0
20 7 20 19 0 11 9 21 23 25 33 8 76 43 98 80 10 17 27 31 36 31 21 0 30 34 12
45 -9 6 -3 32 27 112 32 81 44 103 59 103 23 0 33 34 14 45 -10 7 -4 33 27
115 31 85 42 105 56 101 20 -5 38 36 19 42 -17 6 -14 16 26 124 30 82 40 99
54 95 21 -6 40 34 20 41 -17 6 -14 22 27 128 29 79 41 99 55 96 23 -5 35 29
15 41 -15 10 -10 27 69 215 3 7 13 10 23 7 25 -8 44 25 24 40 -12 8 -6 22 31
79 67 101 90 127 104 113 17 -17 44 23 28 42 -10 11 5 29 73 92 64 59 87 75
97 67 17 -14 45 9 39 31 -6 18 13 34 118 96 59 35 76 41 80 29 8 -20 48 1 44
23 -4 23 203 105 217 86 14 -18 47 -6 43 16 -5 23 202 104 218 85 15 -18 53
-7 47 15 -3 13 17 24 102 55 82 30 109 36 115 27 11 -19 49 -4 44 17 -4 14 16
25 102 56 80 29 108 36 114 26 11 -17 51 -3 48 18 -4 22 200 102 212 83 4 -8
16 -11 29 -6 16 5 19 10 12 23 -7 12 -3 21 15 35 30 23 64 88 64 122 0 18 5
25 20 25 21 0 24 8 14 34 -3 8 -12 12 -20 9 -9 -3 -19 9 -30 36 -15 38 -66 93
-96 103 -11 4 -11 8 0 20 11 14 8 17 -18 26 -24 9 -30 8 -30 -4 0 -21 -18 -18
-124 22 -57 22 -96 42 -96 50 0 8 6 14 13 14 6 1 -3 7 -22 15 -41 18 -42 18
-35 1 10 -26 -11 -24 -111 14 -95 36 -120 54 -96 69 7 5 -2 12 -22 18 -29 9
-34 8 -33 -6 1 -20 -7 -19 -126 25 -86 32 -96 38 -88 54 10 19 7 20 -65 45
-17 5 -17 4 2 -7 13 -8 19 -18 15 -25 -6 -9 -36 -1 -114 29 -94 36 -106 43
-98 58 8 15 4 20 -22 29 -36 13 -48 14 -31 3 7 -4 9 -13 4 -20 -6 -10 -25 -6
-86 18 -113 45 -135 58 -129 75 5 12 12 11 45 -5 21 -11 42 -20 46 -20 4 1
-21 16 -57 34 -57 30 -66 32 -76 18 -10 -14 -18 -11 -65 18 -30 18 -72 46 -94
63 -22 17 -42 32 -44 34 -3 2 1 9 7 15 9 9 17 7 34 -7 31 -26 11 -6 -112 110
-97 92 -99 94 -29 20 42 -44 75 -86 72 -93 -6 -17 -66 31 -127 103 -40 46 -46
58 -36 70 18 22 -5 48 -30 35 -15 -8 -25 2 -62 58 -46 68 -78 126 -78 138 0 3
9 4 19 1 19 -5 19 -3 4 28 -14 29 -18 32 -31 19 -8 -8 -16 -14 -17 -12 -6 6
-85 209 -85 218 0 6 7 10 15 10 8 0 15 3 15 8 0 16 -20 37 -36 37 -13 0 -28
26 -55 95 -43 108 -45 120 -23 120 11 0 14 5 10 16 -3 9 -6 20 -6 25 0 5 -9 8
-21 6 -18 -2 -27 13 -61 101 -36 94 -39 104 -23 115 21 16 9 49 -17 45 -17 -3
-26 14 -59 101 -34 92 -37 105 -23 115 20 15 8 49 -16 43 -15 -4 -26 15 -59
102 -49 130 -51 136 -29 135 13 -1 15 2 8 15 -10 20 -44 61 -36 44 11 -22 -15
-25 -37 -5 -27 26 -88 52 -121 52 -38 0 -41 28 -3 33 27 3 26 4 -8 4 -22 0
-50 -2 -63 -4z"/>
<path d="M10244 15458 l-29 -33 33 29 c17 17 32 31 32 33 0 8 -8 1 -36 -29z"/>
<path d="M9579 13903 c-13 -16 -12 -17 4 -4 16 13 21 21 13 21 -2 0 -10 -8
-17 -17z"/>
<path d="M11230 13906 c0 -2 8 -10 18 -17 15 -13 16 -12 3 4 -13 16 -21 21
-21 13z"/>
<path d="M9549 13863 c-13 -16 -12 -17 4 -4 16 13 21 21 13 21 -2 0 -10 -8
-17 -17z"/>
<path d="M9434 13728 l-19 -23 23 19 c12 11 22 21 22 23 0 8 -8 2 -26 -19z"/>
<path d="M11547 13589 c12 -15 73 -53 73 -46 0 2 -19 17 -42 32 -24 16 -38 22
-31 14z"/>
<path d="M9184 13534 c-18 -14 -18 -15 4 -4 12 6 22 13 22 15 0 8 -5 6 -26
-11z"/>
<path d="M11630 13536 c0 -3 9 -10 20 -16 11 -6 20 -8 20 -6 0 3 -9 10 -20 16
-11 6 -20 8 -20 6z"/>
<path d="M11830 13430 c8 -5 20 -10 25 -10 6 0 3 5 -5 10 -8 5 -19 10 -25 10
-5 0 -3 -5 5 -10z"/>
<path d="M8950 13420 c-8 -5 -10 -10 -5 -10 6 0 17 5 25 10 8 5 11 10 5 10 -5
0 -17 -5 -25 -10z"/>
<path d="M11880 13410 c8 -5 20 -10 25 -10 6 0 3 5 -5 10 -8 5 -19 10 -25 10
-5 0 -3 -5 5 -10z"/>
<path d="M8870 13390 c-8 -5 -10 -10 -5 -10 6 0 17 5 25 10 8 5 11 10 5 10 -5
0 -17 -5 -25 -10z"/>
<path d="M12010 13360 c8 -5 20 -10 25 -10 6 0 3 5 -5 10 -8 5 -19 10 -25 10
-5 0 -3 -5 5 -10z"/>
<path d="M8740 13340 c-8 -5 -10 -10 -5 -10 6 0 17 5 25 10 8 5 11 10 5 10 -5
0 -17 -5 -25 -10z"/>
<path d="M12090 13330 c8 -5 20 -10 25 -10 6 0 3 5 -5 10 -8 5 -19 10 -25 10
-5 0 -3 -5 5 -10z"/>
<path d="M8660 13310 c-8 -5 -10 -10 -5 -10 6 0 17 5 25 10 8 5 11 10 5 10 -5
0 -17 -5 -25 -10z"/>
<path d="M12380 13220 c8 -5 20 -10 25 -10 6 0 3 5 -5 10 -8 5 -19 10 -25 10
-5 0 -3 -5 5 -10z"/>
<path d="M8370 13200 c-8 -5 -10 -10 -5 -10 6 0 17 5 25 10 8 5 11 10 5 10 -5
0 -17 -5 -25 -10z"/>
<path d="M13100 12925 c19 -19 36 -35 39 -35 3 0 -10 16 -29 35 -19 19 -36 35
-39 35 -3 0 10 -16 29 -35z"/>
</g>
</svg>
