<?xml version="1.0" standalone="no"?>
<!DOCTYPE svg PUBLIC "-//W3C//DTD SVG 20010904//EN"
 "http://www.w3.org/TR/2001/REC-SVG-20010904/DTD/svg10.dtd">
<svg version="1.0" xmlns="http://www.w3.org/2000/svg"
 width="40.000000pt" height="40.000000pt" viewBox="0 0 40.000000 40.000000"
 preserveAspectRatio="xMidYMid meet">

<g transform="translate(0.000000,40.000000) scale(0.100000,-0.100000)"
fill="#000000" stroke="none">
<path d="M160 289 c-23 -39 -39 -77 -36 -85 3 -8 2 -12 -4 -9 -15 9 -30 -31
-26 -72 6 -56 13 -68 57 -92 30 -17 49 -21 77 -16 57 9 69 19 51 42 -13 16
-12 17 2 5 14 -10 20 -10 32 2 18 19 30 77 20 102 -14 35 -116 194 -124 194
-4 0 -27 -32 -49 -71z"/>
</g>
</svg>
